<svg width="41" height="28" viewBox="0 0 41 28" fill="none" xmlns="http://www.w3.org/2000/svg">
<g clip-path="url(#clip0_2282_31834)">
<path d="M40.6309 25.5973C40.6309 26.9216 39.5596 28 38.2264 28H2.40452C1.07926 28 0 26.9216 0 25.5973V2.40272C0 1.07845 1.07926 0 2.40452 0H38.2343C39.5596 0 40.6309 1.07845 40.6309 2.40272V25.5973Z" fill="#92DBEF"/>
<path opacity="0.15" d="M1.70618 25.5973V2.40272C1.70618 1.07845 2.78544 0 4.11071 0H2.40452C1.07926 0 0 1.07052 0 2.40272V25.6052C0 26.9295 1.07926 28.0079 2.40452 28.0079H4.11071C2.78544 28 1.70618 26.9216 1.70618 25.5973Z" fill="#202121"/>
<path d="M26.3775 5.47154C25.4887 4.45653 23.8301 3.94902 21.5446 3.94902H15.1881C14.8072 3.94902 14.4263 4.32965 14.2993 4.71028L11.752 21.3628C11.752 21.7434 12.0059 21.9972 12.2598 21.9972H16.2039L17.2197 15.7723V16.0261C17.3466 15.6454 17.7275 15.2648 18.1085 15.2648H20.013C23.7031 15.2648 26.4965 13.7423 27.3933 9.54744V9.16681C27.2663 9.16681 27.2663 9.16681 27.3933 9.16681C27.5282 7.50949 27.2663 6.48655 26.3775 5.47154Z" fill="#263B80"/>
<path d="M27.4022 9.53951V9.15888C27.4022 9.14302 27.4022 9.13509 27.4022 9.11923C27.1721 8.96064 26.9658 8.84962 26.7991 8.77825C26.0294 8.46106 25.2358 8.39762 24.8707 8.38969H23.0138H19.1253C18.4666 8.41348 18.2841 8.94478 18.2365 9.17474L17.2207 15.7564V15.915V16.0102C17.3477 15.6296 17.7286 15.2489 18.1095 15.2489H20.0141C23.7121 15.2569 26.5055 13.7344 27.4022 9.53951Z" fill="#232C65"/>
<path d="M28.647 10.7369C28.3613 9.94393 27.8534 9.43642 27.4011 9.12716C27.4011 9.14302 27.4011 9.15095 27.4011 9.16681V9.54744C26.5123 13.7423 23.711 15.2648 20.0209 15.2648H18.1163C17.7354 15.2648 17.3545 15.6454 17.2275 16.0261V15.9309C17.2116 15.9626 17.1957 15.9943 17.1878 16.0261L16.4657 20.4033L16.2038 21.9972L15.9102 23.7735C15.9102 24.0272 16.0371 24.281 16.418 24.281H19.5923C20.2272 24.281 20.4335 23.7814 20.4891 23.5197L20.5129 23.3532L21.1239 19.5786C21.1239 19.5786 21.2033 18.6905 22.0683 18.6905H22.3936C25.5759 18.6905 28.1153 17.4217 28.7502 13.6075C28.9327 12.5449 28.9247 11.5457 28.647 10.7369Z" fill="#139AD6"/>
</g>
<defs>
<clipPath id="clip0_2282_31834">
<rect width="40.6309" height="28" fill="white"/>
</clipPath>
</defs>
</svg>
