<svg width="30" height="19" viewBox="0 0 30 19" fill="none" xmlns="http://www.w3.org/2000/svg">
<rect width="30" height="19" rx="3" fill="#306FC8"/>
<mask id="mask0_2444_34565" style="mask-type:alpha" maskUnits="userSpaceOnUse" x="0" y="0" width="30" height="19">
<rect width="30" height="19" rx="3" fill="url(#paint0_linear_2444_34565)"/>
</mask>
<g mask="url(#mask0_2444_34565)">
<path d="M12.9836 13.9144V11.1484L11.6914 12.5106L12.9836 13.9144Z" fill="white"/>
<path d="M7.56836 11.4956V12.1182L9.41602 12.1144V12.8276H7.56836V13.5106H9.63975L10.6041 12.4993L9.67832 11.4956H7.56836Z" fill="white"/>
<path d="M15.4182 6.25424C15.5262 6.19386 15.5918 6.07311 15.5918 5.92595C15.5918 5.77879 15.5224 5.67313 15.4182 5.61653C15.3179 5.55993 15.1675 5.55615 15.0171 5.55615H13.9756V6.32593H15.0055C15.1675 6.32593 15.3025 6.31839 15.4182 6.25424Z" fill="white"/>
<path d="M1.55078 6.7976H2.70412L2.12552 5.42407L1.55078 6.7976Z" fill="white"/>
<path d="M14.9275 11.4956H13.8281V12.3635H14.9197C15.2399 12.3635 15.4405 12.2126 15.4405 11.9145C15.4366 11.6164 15.2283 11.4956 14.9275 11.4956Z" fill="white"/>
<path d="M1.76666 8.1976H2.49184L2.81971 8.97115H5.65485V8.3825L5.90943 8.97115H7.37522L7.6298 8.37495V8.97115H14.6733V7.71083H14.8122C14.9124 7.71083 14.9394 7.72215 14.9394 7.87686V8.97115H18.5808V8.67305C18.8701 8.82776 19.3252 8.97115 19.9347 8.97115H21.4661L21.7978 8.1976H22.523L22.8508 8.97115H25.794V8.23911L26.2453 8.97115H28.6098V4.15625H26.2723V4.72227L25.9367 4.15625H23.5336V4.72227L23.2404 4.15625H19.9926C19.4448 4.15625 18.9626 4.22795 18.5808 4.43171V4.15625H16.3435V4.43171C16.0812 4.22417 15.7533 4.15625 15.383 4.15625H7.19392L6.63847 5.39771L6.08301 4.15625H3.50631V4.72227L3.21316 4.15625H1.01448L0 6.43918V8.97115H1.43878L1.76666 8.1976ZM18.7389 5.23923C19.0089 4.96377 19.441 4.83547 20.0234 4.83547H20.8296V5.57506H20.0388C19.7264 5.57506 19.5528 5.62034 19.387 5.7826C19.2404 5.92599 19.1401 6.20145 19.1401 6.5637C19.1401 6.9335 19.2134 7.19387 19.3792 7.37499C19.5027 7.51083 19.738 7.55234 19.9655 7.55234H20.3436L21.5316 4.83547H22.7891L24.2202 8.10326V4.83547H25.5085L26.9898 7.23915V4.83547H27.8577V8.29194H26.6542L25.0611 5.70336V8.29194H23.3446L23.0206 7.51838H21.2655L20.9415 8.29194H19.9617C19.549 8.29194 19.0282 8.1976 18.7351 7.90705C18.438 7.61272 18.2876 7.21651 18.2876 6.59012C18.2876 6.07693 18.3802 5.60902 18.7389 5.23923ZM17.0108 4.83547H17.8749V8.29194H17.0108V4.83547ZM13.1342 4.83547H15.0783C15.5065 4.83547 15.8228 4.85056 16.0928 5.0015C16.3628 5.15621 16.5287 5.38262 16.5287 5.76751C16.5287 6.31466 16.1507 6.59766 15.9269 6.68445C16.1121 6.75237 16.2702 6.8769 16.3435 6.97878C16.4631 7.14481 16.4824 7.3033 16.4824 7.60517V8.29194H15.6338V7.85422C15.6338 7.65045 15.6531 7.34858 15.4949 7.18632C15.3753 7.0618 15.1902 7.03538 14.8816 7.03538H13.9751V8.29194H13.1304V4.83547H13.1342ZM9.73205 4.83547H12.5479V5.55619H10.5729V6.17881H12.4978V6.88822H10.5729V7.57121L12.5479 7.56744V8.28816H9.73205V4.83547ZM0.92576 8.29194H0.00771466L1.51593 4.83547H2.77342L4.20449 8.10326V4.83547H5.58542L6.68476 7.17877L7.69923 4.83547H9.1033V8.29194H8.23926V5.58638L7.01649 8.29194H6.27588L5.04925 5.58261V8.29194H3.32888L3.00486 7.51838H1.24978L0.92576 8.29194Z" fill="white"/>
<path d="M22.1411 5.42407L21.5664 6.7976H22.7159L22.1411 5.42407Z" fill="white"/>
<path d="M28.1312 11.5748C28.0425 11.6314 28.0039 11.7144 28.0039 11.8238C28.0039 11.9521 28.0811 12.0427 28.1891 12.0804C28.2739 12.1106 28.3704 12.1182 28.5131 12.1182L28.9644 12.1295C29.4311 12.1408 29.7397 12.2163 29.9287 12.4087C29.9557 12.4351 29.9789 12.4615 29.9981 12.488V11.5144H28.4668C28.3163 11.5144 28.2122 11.522 28.1312 11.5748Z" fill="white"/>
<path d="M28.861 14.2274H27.2332V13.4878H28.8533C29.0115 13.4878 29.1233 13.4651 29.1928 13.4048C29.2506 13.3519 29.2931 13.2765 29.2931 13.1784C29.2931 13.0765 29.2506 12.9972 29.1889 12.9482C29.1272 12.8953 29.0385 12.8727 28.8958 12.8727C28.1089 12.8501 27.1175 12.8991 27.1175 11.8011C27.1175 11.3067 27.4377 10.7747 28.3249 10.7747H30.0028V10.0955H28.4406C27.9739 10.0955 27.6228 10.2011 27.3837 10.3709V10.0955H25.0809C24.7144 10.0955 24.2747 10.1822 24.0702 10.3709V10.0955H19.9467V10.3709C19.6189 10.1445 19.0673 10.0955 18.805 10.0955H16.0856V10.3709C15.8271 10.1256 15.2562 10.0955 14.9052 10.0955H11.8579L11.1597 10.8351L10.5117 10.0955H5.96777V14.9104H10.4307L11.1443 14.1594L11.8232 14.9066L14.5696 14.9104V13.7746H14.8435C15.2061 13.7746 15.6381 13.767 16.0123 13.6085V14.9104H18.2881V13.65H18.4C18.5388 13.65 18.5504 13.6614 18.5504 13.7897V14.9104H25.4357C25.8678 14.9104 26.3345 14.8009 26.5891 14.6047V14.9104H28.7723C29.2236 14.9104 29.6711 14.8462 30.0105 14.6877V13.7934C29.7907 14.0878 29.4049 14.2274 28.861 14.2274ZM14.8744 13.0727H13.8252V14.2274H12.1819L11.1482 13.0916L10.0681 14.2311H6.72381V10.7747H10.1183L11.152 11.9105L12.2282 10.7747H14.9284C15.5918 10.7747 16.344 10.9633 16.344 11.918C16.3401 12.8727 15.6111 13.0727 14.8744 13.0727ZM19.9506 12.918C20.0702 13.084 20.0895 13.2425 20.0933 13.5444V14.2274H19.2447V13.7897C19.2447 13.5859 19.264 13.284 19.1058 13.1218C18.9824 12.9972 18.8011 12.9708 18.4925 12.9708H17.5861V14.2274H16.7413V10.7709H18.6854C19.1136 10.7709 19.426 10.786 19.6999 10.9407C19.9699 11.0954 20.1358 11.3218 20.1358 11.7067C20.1358 12.2539 19.7577 12.5369 19.5379 12.6237C19.723 12.6916 19.8812 12.8161 19.9506 12.918ZM23.4183 11.4954H21.4472V12.118H23.3759V12.8312H21.4472V13.5142H23.4222V14.2311H20.6063V10.7747H23.4222V11.4954H23.4183ZM25.563 14.2274H23.9198V13.4878H25.5553C25.7135 13.4878 25.8253 13.4651 25.8948 13.4048C25.9526 13.3519 25.995 13.2765 25.995 13.1784C25.995 13.0765 25.9526 12.9972 25.8909 12.9482C25.8292 12.8953 25.7405 12.8727 25.5977 12.8727C24.8108 12.8501 23.8195 12.8991 23.8195 11.8011C23.8195 11.303 24.1397 10.7747 25.0269 10.7747H26.7164V11.5143H25.1696C25.0153 11.5143 24.915 11.518 24.8301 11.5709C24.7414 11.6275 24.7067 11.7105 24.7067 11.8199C24.7067 11.9482 24.7838 12.0388 24.8918 12.0765C24.9806 12.1067 25.0731 12.1142 25.2159 12.1142L25.6672 12.1256C26.1339 12.1369 26.4425 12.2124 26.6315 12.4048C26.7974 12.5784 26.8861 12.7784 26.8861 13.1368C26.8899 13.8764 26.4193 14.2274 25.563 14.2274Z" fill="white"/>
<path d="M19.0286 11.5522C18.9283 11.4994 18.774 11.4956 18.6274 11.4956H17.5859V12.2654H18.6158C18.7779 12.2654 18.9167 12.2616 19.0286 12.1975C19.1366 12.1371 19.2022 12.0163 19.2022 11.8692C19.1983 11.7182 19.1327 11.6126 19.0286 11.5522Z" fill="white"/>
</g>
<defs>
<linearGradient id="paint0_linear_2444_34565" x1="15" y1="0" x2="15" y2="19" gradientUnits="userSpaceOnUse">
<stop stop-color="#1B8ABA"/>
<stop offset="1" stop-color="#005D9C"/>
</linearGradient>
</defs>
</svg>
