<svg width="30" height="19" viewBox="0 0 30 19" fill="none" xmlns="http://www.w3.org/2000/svg">
<rect width="30" height="19" rx="3" fill="#0F3560"/>
<path d="M17.6177 14.1695H12.3682V4.8335H17.6177V14.1695Z" fill="#FF5F00"/>
<path d="M12.7047 9.50073C12.7047 7.60688 13.6007 5.91988 14.9961 4.83272C13.9757 4.03773 12.6879 3.56323 11.2883 3.56323C7.97493 3.56323 5.28906 6.2215 5.28906 9.50073C5.28906 12.78 7.97493 15.4382 11.2883 15.4382C12.6879 15.4382 13.9757 14.9637 14.9961 14.1687C13.6007 13.0816 12.7047 11.3946 12.7047 9.50073Z" fill="#EB001B"/>
<path d="M24.6977 9.50073C24.6977 12.78 22.0118 15.4382 18.6984 15.4382C17.2988 15.4382 16.011 14.9637 14.9902 14.1687C16.386 13.0816 17.2821 11.3946 17.2821 9.50073C17.2821 7.60688 16.386 5.91988 14.9902 4.83272C16.011 4.03773 17.2988 3.56323 18.6984 3.56323C22.0118 3.56323 24.6977 6.2215 24.6977 9.50073Z" fill="#F79E1B"/>
<path d="M9.8037 9.53837C9.8037 9.27902 9.97544 9.06596 10.2561 9.06596C10.5242 9.06596 10.7053 9.26983 10.7053 9.53837C10.7053 9.8069 10.5242 10.0108 10.2561 10.0108C9.97544 10.0108 9.8037 9.79772 9.8037 9.53837ZM11.0109 9.53837V8.8006H10.6867V8.97974C10.5839 8.84689 10.4278 8.7635 10.2157 8.7635C9.79763 8.7635 9.46985 9.08786 9.46985 9.53837C9.46985 9.98922 9.79763 10.3132 10.2157 10.3132C10.4278 10.3132 10.5839 10.2298 10.6867 10.097V10.2761H11.0109V9.53837ZM21.9668 9.53837C21.9668 9.27902 22.1385 9.06596 22.4192 9.06596C22.6877 9.06596 22.8683 9.26983 22.8683 9.53837C22.8683 9.8069 22.6877 10.0108 22.4192 10.0108C22.1385 10.0108 21.9668 9.79772 21.9668 9.53837ZM23.1743 9.53837V8.20806H22.8498V8.97974C22.7469 8.84689 22.5909 8.7635 22.3788 8.7635C21.9607 8.7635 21.6329 9.08786 21.6329 9.53837C21.6329 9.98922 21.9607 10.3132 22.3788 10.3132C22.5909 10.3132 22.7469 10.2298 22.8498 10.097V10.2761H23.1743V9.53837ZM15.0353 9.05076C15.2441 9.05076 15.3784 9.18044 15.4127 9.40869H14.6389C14.6736 9.19563 14.8043 9.05076 15.0353 9.05076ZM15.0417 8.7635C14.6047 8.7635 14.299 9.07832 14.299 9.53837C14.299 10.0076 14.6172 10.3132 15.0635 10.3132C15.2881 10.3132 15.4937 10.2578 15.6747 10.1065L15.5159 9.86874C15.3909 9.96732 15.2316 10.0231 15.082 10.0231C14.8732 10.0231 14.6829 9.92739 14.6361 9.66168H15.7433C15.7465 9.62175 15.7497 9.58147 15.7497 9.53837C15.7465 9.07832 15.4594 8.7635 15.0417 8.7635ZM18.9564 9.53837C18.9564 9.27902 19.1282 9.06596 19.4088 9.06596C19.677 9.06596 19.858 9.26983 19.858 9.53837C19.858 9.8069 19.677 10.0108 19.4088 10.0108C19.1282 10.0108 18.9564 9.79772 18.9564 9.53837ZM20.1636 9.53837V8.8006H19.8394V8.97974C19.7362 8.84689 19.5806 8.7635 19.3685 8.7635C18.9504 8.7635 18.6226 9.08786 18.6226 9.53837C18.6226 9.98922 18.9504 10.3132 19.3685 10.3132C19.5806 10.3132 19.7362 10.2298 19.8394 10.097V10.2761H20.1636V9.53837ZM17.1255 9.53837C17.1255 9.98604 17.4404 10.3132 17.921 10.3132C18.1456 10.3132 18.2952 10.2638 18.4573 10.1373L18.3016 9.87792C18.1798 9.96449 18.052 10.0108 17.9113 10.0108C17.6525 10.0076 17.4622 9.82245 17.4622 9.53837C17.4622 9.25429 17.6525 9.06914 17.9113 9.06596C18.052 9.06596 18.1798 9.11224 18.3016 9.19881L18.4573 8.93946C18.2952 8.81297 18.1456 8.7635 17.921 8.7635C17.4404 8.7635 17.1255 9.09069 17.1255 9.53837ZM21.3055 8.7635C21.1184 8.7635 20.9967 8.85007 20.9124 8.97974V8.8006H20.591V10.2761H20.9156V9.44897C20.9156 9.20482 21.0216 9.06914 21.2337 9.06914C21.2994 9.06914 21.368 9.07832 21.4365 9.10624L21.5365 8.80378C21.4648 8.77587 21.3712 8.7635 21.3055 8.7635ZM12.6144 8.91791C12.4584 8.81615 12.2435 8.7635 12.0064 8.7635C11.6286 8.7635 11.3854 8.94264 11.3854 9.23591C11.3854 9.47653 11.5665 9.62493 11.9 9.67122L12.0531 9.69277C12.231 9.71751 12.3149 9.7638 12.3149 9.84718C12.3149 9.96131 12.1963 10.0263 11.9749 10.0263C11.7504 10.0263 11.5883 9.9553 11.479 9.87192L11.3262 10.1217C11.504 10.2514 11.7286 10.3132 11.9717 10.3132C12.4023 10.3132 12.6519 10.1125 12.6519 9.83164C12.6519 9.57229 12.4555 9.43661 12.131 9.39032L11.9782 9.36841C11.8378 9.35004 11.7254 9.32248 11.7254 9.22355C11.7254 9.11542 11.8314 9.05076 12.0092 9.05076C12.1995 9.05076 12.3838 9.12178 12.4741 9.17726L12.6144 8.91791ZM16.7977 8.7635C16.6106 8.7635 16.4888 8.85007 16.4049 8.97974V8.8006H16.0836V10.2761H16.4078V9.44897C16.4078 9.20482 16.5138 9.06914 16.7259 9.06914C16.7916 9.06914 16.8602 9.07832 16.9287 9.10624L17.0287 8.80378C16.9569 8.77587 16.8634 8.7635 16.7977 8.7635ZM14.0309 8.8006H13.5006V8.35293H13.1729V8.8006H12.8704V9.09387H13.1729V9.76698C13.1729 10.1094 13.3071 10.3132 13.6906 10.3132C13.8313 10.3132 13.9934 10.2701 14.0962 10.1991L14.0027 9.92421C13.9059 9.97968 13.7999 10.0076 13.7156 10.0076C13.5535 10.0076 13.5006 9.90866 13.5006 9.76062V9.09387H14.0309V8.8006ZM9.18313 10.2761V9.35004C9.18313 9.0013 8.95855 8.76668 8.59649 8.7635C8.40618 8.76032 8.2098 8.81898 8.07234 9.02603C7.9695 8.86244 7.8074 8.7635 7.5796 8.7635C7.42035 8.7635 7.26468 8.80979 7.14292 8.98257V8.8006H6.81836V10.2761H7.14578V9.45816C7.14578 9.20199 7.28931 9.06596 7.51105 9.06596C7.72635 9.06596 7.83525 9.20482 7.83525 9.45498V10.2761H8.16303V9.45816C8.16303 9.20199 8.31263 9.06596 8.52794 9.06596C8.74931 9.06596 8.85536 9.20482 8.85536 9.45498V10.2761H9.18313Z" fill="white"/>
</svg>
