<svg width="61" height="16" viewBox="0 0 61 16" fill="none" xmlns="http://www.w3.org/2000/svg">
<path d="M7.20523 0.000832902H2.53503C2.21539 0.000832902 1.94362 0.233075 1.89376 0.548667L0.00490422 12.5243C-0.0326636 12.7605 0.150389 12.9736 0.390044 12.9736H2.61967C2.93926 12.9736 3.21102 12.7415 3.26089 12.4253L3.77031 9.19532C3.81951 8.87908 4.09194 8.64688 4.41085 8.64688H5.8893C8.96569 8.64688 10.7412 7.1582 11.2049 4.20815C11.4138 2.91748 11.2137 1.90343 10.6094 1.19324C9.94562 0.413311 8.76833 0.000832902 7.20523 0.000832902V0.000832902ZM7.74404 4.37479C7.48863 6.05059 6.20822 6.05059 4.97014 6.05059H4.26542L4.75981 2.92095C4.78921 2.73176 4.95306 2.59246 5.14429 2.59246H5.46727C6.31062 2.59246 7.10622 2.59246 7.51729 3.07316C7.76246 3.36001 7.83759 3.78611 7.74404 4.37479Z" fill="#283B82"/>
<path d="M21.1651 4.32057H18.9288C18.7383 4.32057 18.5737 4.45989 18.5442 4.64906L18.4454 5.27457L18.2889 5.04783C17.8048 4.34512 16.7251 4.11026 15.6475 4.11026C13.1762 4.11026 11.0654 5.98203 10.6543 8.60771C10.4406 9.91746 10.7445 11.1699 11.4874 12.0432C12.1689 12.8463 13.1441 13.1809 14.3043 13.1809C16.2956 13.1809 17.3998 11.9006 17.3998 11.9006L17.3001 12.522C17.2625 12.7596 17.4456 12.9727 17.684 12.9727H19.6983C20.0186 12.9727 20.289 12.7405 20.3396 12.4244L21.5483 4.7699C21.5866 4.53429 21.4042 4.32057 21.1651 4.32057V4.32057ZM18.0478 8.67328C17.8321 9.9509 16.818 10.8087 15.5247 10.8087C14.8753 10.8087 14.3562 10.6004 14.0229 10.2056C13.6924 9.81367 13.5668 9.25576 13.672 8.63431C13.8734 7.36758 14.9046 6.48193 16.1781 6.48193C16.8133 6.48193 17.3295 6.69291 17.6696 7.09097C18.0104 7.49319 18.1454 8.05454 18.0478 8.67328Z" fill="#283B82"/>
<path d="M33.076 4.32058H30.8287C30.6142 4.32058 30.4128 4.42712 30.2912 4.60539L27.1916 9.17112L25.8778 4.7836C25.7952 4.50904 25.5418 4.32058 25.255 4.32058H23.0466C22.7782 4.32058 22.5918 4.58279 22.6772 4.83546L25.1526 12.1L22.8253 15.3853C22.6423 15.6441 22.8266 16 23.1429 16H25.3875C25.6005 16 25.8 15.8961 25.9208 15.7213L33.3956 4.93181C33.5745 4.67362 33.3909 4.32058 33.076 4.32058" fill="#283B82"/>
<path d="M40.5167 0.000832902H35.8458C35.527 0.000832902 35.2551 0.233075 35.2053 0.548667L33.3164 12.5243C33.2789 12.7605 33.4619 12.9736 33.7002 12.9736H36.0972C36.3197 12.9736 36.5104 12.8112 36.5451 12.5899L37.0811 9.19532C37.1303 8.87908 37.4029 8.64688 37.7217 8.64688H39.1995C42.2765 8.64688 44.0514 7.1582 44.5157 4.20815C44.7254 2.91748 44.524 1.90343 43.9196 1.19324C43.2565 0.413311 42.0799 0.000832902 40.5167 0.000832902V0.000832902ZM41.0556 4.37479C40.8008 6.05059 39.5205 6.05059 38.2817 6.05059H37.5777L38.0728 2.92095C38.1021 2.73176 38.2646 2.59246 38.4565 2.59246H38.7795C39.6223 2.59246 40.4184 2.59246 40.8295 3.07316C41.0747 3.36001 41.1491 3.78611 41.0556 4.37479Z" fill="#469BDB"/>
<path d="M54.4763 4.32057H52.2413C52.0493 4.32057 51.8861 4.45989 51.8574 4.64906L51.7584 5.27457L51.6014 5.04783C51.1172 4.34512 50.0382 4.11026 48.9607 4.11026C46.4892 4.11026 44.3793 5.98203 43.9681 8.60771C43.755 9.91746 44.0575 11.1699 44.8006 12.0432C45.4835 12.8463 46.4572 13.1809 47.6174 13.1809C49.6087 13.1809 50.7129 11.9006 50.7129 11.9006L50.6131 12.522C50.5757 12.7596 50.7586 12.9727 50.9984 12.9727H53.0122C53.3311 12.9727 53.6029 12.7405 53.6528 12.4244L54.8622 4.7699C54.8989 4.53429 54.716 4.32057 54.4763 4.32057V4.32057ZM51.3589 8.67328C51.1444 9.9509 50.129 10.8087 48.8357 10.8087C48.1876 10.8087 47.6672 10.6004 47.334 10.2056C47.0036 9.81367 46.8792 9.25576 46.9831 8.63431C47.1858 7.36758 48.2156 6.48193 49.4893 6.48193C50.1243 6.48193 50.6405 6.69291 50.9806 7.09097C51.3227 7.49319 51.4579 8.05454 51.3589 8.67328Z" fill="#469BDB"/>
<path d="M57.1132 0.329393L55.1963 12.5243C55.1588 12.7605 55.3418 12.9736 55.5801 12.9736H57.5072C57.8275 12.9736 58.0993 12.7415 58.1485 12.4253L60.0386 0.450358C60.0762 0.213984 59.8933 0.000265864 59.6549 0.000265864H57.4969C57.3064 0.000835781 57.1426 0.140323 57.1132 0.329393" fill="#469BDB"/>
</svg>
