<svg width="30" height="19" viewBox="0 0 30 19" fill="none" xmlns="http://www.w3.org/2000/svg">
<rect width="30" height="19" rx="3" fill="#00579F"/>
<path d="M13.4798 12.7867H11.6328L12.788 6.23438H14.6349L13.4798 12.7867Z" fill="white"/>
<path d="M20.1751 6.39468C19.8108 6.2621 19.233 6.11572 18.5186 6.11572C16.6946 6.11572 15.4102 7.00791 15.4024 8.28346C15.3872 9.22457 16.3219 9.74728 17.0211 10.0611C17.7356 10.3817 17.9785 10.591 17.9785 10.8768C17.9713 11.3158 17.4011 11.5181 16.8694 11.5181C16.132 11.5181 15.7369 11.4138 15.1364 11.1696L14.8932 11.0649L14.6348 12.5358C15.0679 12.7168 15.866 12.8774 16.6946 12.8845C18.6326 12.8845 19.8943 12.0061 19.9092 10.6468C19.9166 9.90089 19.423 9.32935 18.3589 8.86232C17.7129 8.56252 17.3173 8.36036 17.3173 8.05361C17.3249 7.77474 17.6519 7.48911 18.3811 7.48911C18.9815 7.47512 19.4227 7.60752 19.7569 7.74L19.924 7.80958L20.1751 6.39468Z" fill="white"/>
<path d="M22.63 10.4654C22.7821 10.089 23.3674 8.63216 23.3674 8.63216C23.3597 8.64615 23.5192 8.24879 23.6104 8.00485L23.7395 8.56944C23.7395 8.56944 24.0892 10.1378 24.1652 10.4654C23.8765 10.4654 22.9948 10.4654 22.63 10.4654ZM24.9098 6.23438H23.4812C23.0407 6.23438 22.706 6.35278 22.5159 6.77802L19.7725 12.7866H21.7104C21.7104 12.7866 22.0295 11.9779 22.0981 11.8037C22.3107 11.8037 24.1959 11.8037 24.4694 11.8037C24.5224 12.0338 24.6898 12.7866 24.6898 12.7866H26.3999L24.9098 6.23438Z" fill="white"/>
<path d="M10.0903 6.23438L8.28147 10.7024L8.08382 9.79626C7.74941 8.75065 6.70064 7.61462 5.53027 7.04976L7.18705 12.7798H9.14016L12.0433 6.23438H10.0903Z" fill="white"/>
<path d="M6.60159 6.23438H3.63001L3.59961 6.36677C5.91763 6.91051 7.4528 8.22118 8.08354 9.79654L7.43755 6.78516C7.3312 6.36667 7.00437 6.24818 6.60159 6.23438Z" fill="#FAA61A"/>
</svg>
