<svg width="220" height="164" viewBox="0 0 220 164" fill="none" xmlns="http://www.w3.org/2000/svg">
<g filter="url(#filter0_d_2694_36823)">
<path d="M176.578 111.398C170.933 120.402 159.174 133.908 155.882 131.775C152.589 129.643 159.174 112.82 164.819 104.053C170.463 95.0488 175.402 92.9163 178.694 95.0488C181.752 97.1813 182.222 102.394 176.578 111.398Z" fill="#27CE88"/>
</g>
<g filter="url(#filter1_d_2694_36823)">
<path d="M172.789 112.484C164.948 117.42 153.306 128.466 155.207 131.286C157.107 134.106 171.839 127.996 179.68 123.06C187.521 118.125 189.184 113.66 187.283 110.604C185.382 107.549 180.63 107.314 172.789 112.484Z" fill="#27CE88"/>
</g>
<path d="M133.707 15.5544H85.8479C85.8479 11.6658 88.8391 8.67455 92.7277 8.67455C93.6251 8.67455 94.2233 8.67454 94.8216 8.97366C96.6163 3.88859 101.402 0 107.086 0C112.47 0 116.957 2.99122 119.05 7.47805C120.546 6.58069 122.042 6.28157 123.836 6.28157C129.221 6.28157 133.408 10.4693 133.707 15.5544Z" fill="url(#paint0_linear_2694_36823)"/>
<path d="M206.394 62.8156H169.602C169.602 59.8244 171.995 57.4314 174.986 57.4314C175.584 57.4314 176.182 57.4314 176.781 57.7305C177.977 53.8419 181.866 50.8507 186.353 50.8507C190.241 50.8507 193.831 53.2437 195.326 56.8332C196.523 56.2349 197.719 55.9358 198.916 55.9358C203.103 55.6367 206.394 58.927 206.394 62.8156Z" fill="url(#paint1_linear_2694_36823)"/>
<path d="M32.3052 55.9357H8.37549C8.37549 54.141 9.8711 52.3463 11.965 52.3463C12.2641 52.3463 12.8623 52.3463 13.1614 52.6454C14.0588 49.9533 16.4518 48.1586 19.443 48.1586C22.1351 48.1586 24.229 49.6542 25.4254 52.0472C26.0237 51.748 26.9211 51.4489 27.8184 51.4489C29.9123 51.4489 32.0061 53.2436 32.3052 55.9357Z" fill="url(#paint2_linear_2694_36823)"/>
<path d="M28.1175 116.658C33.2026 124.136 43.971 135.203 46.6631 133.409C49.3552 131.614 43.3727 117.555 38.2876 110.077C33.2026 102.599 29.0149 101.103 26.0236 102.898C23.0324 104.394 23.0324 109.18 28.1175 116.658Z" fill="#8C8DFF"/>
<path d="M30.8095 117.854C37.6894 122.042 47.8595 131.015 46.3639 133.408C44.8683 135.801 32.006 131.015 25.4254 126.828C18.8447 122.64 17.0499 119.051 18.5455 116.358C20.0412 113.666 23.9297 113.666 30.8095 117.854Z" fill="#8C8DFF"/>
<path d="M157.338 132.212H44.2701C39.7833 132.212 36.1938 128.622 36.1938 124.136V71.4901C36.1938 67.0033 39.7833 63.4138 44.2701 63.4138H157.338C161.825 63.4138 165.415 67.0033 165.415 71.4901V124.136C165.415 128.622 161.825 132.212 157.338 132.212Z" fill="url(#paint3_linear_2694_36823)"/>
<path d="M66.4051 95.4199H50.5517C49.3552 95.4199 48.1587 94.5225 48.1587 93.0269V82.5577C48.1587 81.3612 49.0561 80.1647 50.5517 80.1647H66.4051C67.6016 80.1647 68.7981 81.062 68.7981 82.5577V93.0269C68.499 94.5225 67.6016 95.4199 66.4051 95.4199Z" fill="white"/>
<path d="M55.6367 86.4462V80.4637H53.5429V84.3523H48.1587V86.4462H51.1499V89.1383H48.1587V91.2321H53.5429V95.1207H55.6367V89.1383H53.2438V86.1471H55.6367V86.4462ZM68.499 86.4462V84.3523H63.1148V80.4637H61.0209V86.4462H63.4139V89.4374H61.0209V95.4198H63.1148V91.5313H68.499V89.4374H65.5078V86.7453H68.499V86.4462Z" fill="#DCE5F0"/>
<path d="M165.414 78.0709C164.816 78.0709 164.218 78.37 163.62 78.37C161.825 74.4814 158.834 70.5929 155.543 67.0034L159.432 63.1148C158.834 62.8157 158.235 62.8157 157.338 62.8157H156.441L154.048 65.8069C153.15 64.9095 152.253 64.0122 151.057 63.1148H147.467C149.262 64.3113 150.757 65.8069 152.253 67.3025L143.279 76.2762L136.4 69.3964C138.194 67.6016 139.391 65.5078 140.587 63.4139H137.596C136.699 64.9095 135.801 66.4051 134.605 67.6016L130.417 63.4139H127.426L133.109 69.0972C130.417 71.4902 127.725 73.2849 124.435 74.1823C124.136 73.2849 123.836 72.3876 123.537 71.4902C122.64 68.499 122.341 65.5078 122.939 63.4139H119.35C112.769 74.4814 114.265 88.8393 123.537 98.1121C134.605 109.18 152.552 109.18 163.62 98.1121C164.218 97.5138 164.816 96.6165 165.714 96.0182V83.4551C165.414 82.5577 165.115 81.9595 164.816 81.0621C165.115 81.0621 165.414 81.0621 165.714 80.763V78.0709H165.414ZM154.048 68.7981C157.338 72.0885 159.731 75.6779 161.526 79.2674C158.235 80.4639 154.945 82.2586 151.954 84.9507L145.074 77.7718L154.048 68.7981ZM134.904 70.892L142.083 78.0709L133.109 87.0446C129.819 83.7542 127.426 80.1648 125.631 76.5753C128.622 75.3788 131.913 73.2849 134.904 70.892ZM120.247 65.5078C120.247 67.6016 120.546 69.6955 121.144 72.0885C121.443 72.9858 121.743 73.8832 122.042 74.7806C120.546 75.0797 118.751 75.3788 117.256 75.3788C117.555 72.0885 118.452 68.499 120.247 65.5078ZM117.256 78.0709C119.35 78.0709 121.443 77.7718 123.238 77.1735C125.033 81.0621 128.024 84.9507 131.314 88.5402L124.136 95.7191C119.649 90.634 117.256 84.3525 117.256 78.0709ZM143.279 104.095C136.998 104.095 130.716 101.702 125.631 97.2147L132.81 90.0358C136.4 93.3261 140.288 96.0182 144.177 98.1121C143.578 99.9068 143.279 102.001 143.279 104.095ZM134.306 88.5402L143.279 79.5665L150.458 86.7454C147.766 89.4375 145.971 92.7279 144.775 96.3173C141.186 94.2235 137.596 91.5314 134.306 88.5402ZM145.971 104.095C145.971 102.3 146.271 100.804 146.57 99.3086C147.467 99.6077 148.364 99.9068 149.262 100.206C151.655 100.804 153.749 101.103 155.842 101.103C152.851 102.599 149.262 103.795 145.971 104.095ZM149.86 98.1121C148.963 97.813 148.065 97.5138 147.168 97.2147C148.364 93.9244 149.86 91.2323 152.253 88.5402L160.928 97.2147C158.535 99.0094 154.646 99.3086 149.86 98.1121ZM162.722 95.7191L154.048 86.7454C156.74 84.3525 159.432 82.5577 162.722 81.6604C163.021 82.5577 163.321 83.4551 163.62 84.3525C164.816 89.1384 164.517 93.027 162.722 95.7191Z" fill="white"/>
<path d="M60.722 47.2612L52.3466 55.6366C51.7483 56.2349 50.5518 56.2349 49.6545 55.6366L41.2791 47.2612C40.0826 46.0647 40.9799 43.9709 42.4755 43.9709H45.1676C46.065 43.9709 46.9624 43.0735 46.9624 42.1761V33.8007C46.9624 32.9033 47.8597 32.006 48.7571 32.006H52.9448C53.8422 32.006 54.7395 32.9033 54.7395 33.8007V42.1761C54.7395 43.0735 55.6369 43.9709 56.5343 43.9709H59.2264C61.0211 44.27 61.9185 46.0647 60.722 47.2612Z" fill="url(#paint4_linear_2694_36823)"/>
<path d="M41.279 33.8008L35.8948 39.4841C35.2966 40.0823 34.6983 40.0823 34.1001 39.4841L28.7159 34.0999C28.1176 33.5017 28.4167 32.006 29.6132 32.006H31.408C32.0062 32.006 32.6045 31.4078 32.6045 30.8096V25.4254C32.6045 24.8271 33.2027 24.2289 33.8009 24.2289H36.493C37.0913 24.2289 37.6895 24.8271 37.6895 25.4254V30.8096C37.6895 31.4078 38.2878 32.006 38.886 32.006H40.3816C41.279 32.006 41.8772 33.2025 41.279 33.8008Z" fill="url(#paint5_linear_2694_36823)"/>
<path d="M52.3465 22.135L49.0562 25.4253C48.757 25.7244 48.1588 25.7244 47.8597 25.4253L44.5693 22.135C43.9711 21.5367 44.5693 20.9385 45.1676 20.9385H46.3641C46.6632 20.9385 46.9623 20.6394 46.9623 20.3402V17.0499C46.9623 16.7508 47.2614 16.4517 47.5606 16.4517H49.3553C49.6544 16.4517 49.9535 16.7508 49.9535 17.0499V20.3402C49.9535 20.6394 50.2527 20.9385 50.5518 20.9385H51.7483C52.3465 20.9385 52.6456 21.5367 52.3465 22.135Z" fill="url(#paint6_linear_2694_36823)"/>
<path d="M142.083 129.221L142.681 130.716C142.98 131.315 142.681 131.614 142.083 131.913L136.4 132.212C135.502 132.212 135.203 131.015 136.1 130.716L139.092 129.52L142.083 129.221Z" fill="url(#paint7_linear_2694_36823)"/>
<path d="M142.083 129.221C142.083 129.221 142.083 125.93 142.083 120.845C142.083 115.76 142.681 109.18 143.877 102.898C145.074 96.6164 147.467 90.3349 150.159 86.4463C152.552 82.2586 154.945 79.8656 155.244 79.5665C156.142 78.37 156.74 76.8744 157.039 75.3788C157.338 73.584 157.338 72.0884 156.142 70.5928C155.244 69.3963 153.449 68.7981 151.356 69.3963C149.262 69.6954 147.467 70.8919 146.27 72.3875C145.672 72.9858 142.98 76.5752 140.886 82.2586C138.493 87.6428 136.998 95.1208 136.699 102.3C136.399 109.479 137.297 116.358 137.895 121.444C138.493 126.529 139.092 129.819 139.092 129.819L142.083 129.221Z" fill="url(#paint8_linear_2694_36823)"/>
<path d="M174.688 126.828C174.688 126.828 173.192 124.136 171.098 119.649C169.303 115.162 166.91 109.18 165.415 102.898C163.919 96.6164 162.723 90.3348 162.424 85.2498C162.124 80.1647 161.825 76.8743 161.825 75.977C161.526 72.9858 158.834 69.0972 155.245 69.0972C151.954 69.0972 149.262 73.584 149.561 77.1735C149.561 77.7717 150.16 81.6603 151.655 87.0445C153.151 92.4287 155.245 99.0094 158.236 105.291C160.928 111.573 164.517 117.256 167.21 121.444C169.902 125.631 171.995 128.024 171.995 128.024L174.688 126.828Z" fill="url(#paint9_linear_2694_36823)"/>
<path d="M174.688 126.828L175.884 127.725C176.183 128.024 176.183 128.623 175.884 128.922L170.799 132.212C170.201 132.81 169.303 131.614 169.902 131.015L172.295 128.323L174.688 126.828Z" fill="url(#paint10_linear_2694_36823)"/>
<path d="M147.168 70.5929C145.373 76.2762 160.928 81.3613 162.423 75.3788C163.022 72.9858 165.714 65.2087 166.91 57.1324C168.107 49.0561 167.808 40.3815 164.816 37.3903C163.321 35.5956 159.133 34.3991 156.142 36.1938C148.963 41.2789 148.065 44.5693 148.664 49.6543C148.963 54.7394 150.458 61.3201 147.168 70.5929Z" fill="#2499EF"/>
<path d="M135.502 69.9945C134.007 70.2936 132.511 69.9945 131.015 69.0971C125.93 66.1059 113.367 58.0296 111.273 45.1674C111.273 44.5691 110.974 43.9709 110.974 43.6717C110.675 40.0823 113.068 37.0911 116.657 36.1937C119.649 35.5954 122.341 34.0998 124.136 31.7069C125.033 30.2113 126.529 29.3139 128.323 29.0148C130.118 28.7156 131.614 29.0148 133.109 29.9121C135.502 31.4077 138.793 32.3051 141.784 31.7069C145.373 31.1086 148.664 33.2025 149.561 36.7919C149.561 37.3902 149.86 37.9884 149.86 38.2875C152.253 51.1498 143.279 63.1147 139.391 67.6015C138.493 68.798 136.998 69.6954 135.502 69.9945Z" fill="url(#paint11_linear_2694_36823)"/>
<path d="M115.5 44.5C117.594 55.8666 128.324 63.1147 133.11 65.8068C134.306 66.405 135.802 66.1059 136.699 65.2086C140.289 61.0208 148.066 50.5516 146.271 39.1849C146.271 38.8858 145.972 38.2876 145.972 37.9885C145.673 36.4928 144.177 35.5955 142.682 35.8946C138.494 36.4928 134.605 35.5955 131.315 33.5016C130.118 32.6043 128.324 32.9034 127.426 34.0999C125.033 37.0911 121.743 39.4841 117.555 40.0823C116.06 40.3814 114.863 41.5779 115.162 43.3727C115.269 44.0116 115.5 44.5 115.5 44.5Z" fill="url(#paint12_linear_2694_36823)"/>
<path d="M149.86 65.2084C149.86 65.2084 148.663 66.1058 147.168 67.3023C146.27 67.9005 145.373 68.4988 144.176 69.097C142.98 69.6953 141.783 70.2935 140.587 70.5926C139.39 70.8918 138.194 71.49 136.698 71.49C135.502 71.7891 134.305 71.7891 133.408 71.7891C132.511 71.7891 131.613 71.7891 131.015 71.7891C130.417 71.7891 130.118 71.7891 130.118 71.7891C125.332 74.4812 127.725 68.4988 130.118 69.097C130.118 69.097 130.417 69.097 131.015 69.097C131.613 69.097 132.212 68.7979 133.109 68.7979C134.006 68.7979 134.904 68.4988 135.801 68.1997C136.698 67.9005 137.895 67.6014 138.792 67.0032C139.69 66.704 140.886 65.8067 141.783 65.5076C142.681 64.9093 143.279 64.3111 144.176 63.7128C145.373 62.5163 146.27 61.9181 146.27 61.9181L149.86 65.2084Z" fill="#F9A395"/>
<path d="M156.441 43.6717C156.441 43.6717 154.945 48.7567 152.253 53.2436C151.056 55.6365 149.561 57.7304 148.364 59.226C147.766 59.8243 147.168 60.4225 146.869 61.0207C146.57 61.3199 146.271 61.619 146.271 61.619L149.561 65.5076C149.561 65.5076 149.86 65.2085 150.458 64.9093C151.056 64.6102 151.655 63.7129 152.552 63.1146C154.048 61.619 156.142 59.226 157.936 56.833C161.526 52.0471 163.919 46.6629 163.919 46.6629C165.115 43.6717 163.919 41.2787 161.825 40.6804C159.731 40.0822 157.338 40.9796 156.441 43.6717Z" fill="#1D8DDF"/>
<path d="M150.757 25.4256L161.226 24.5282L161.825 36.7922C157.936 41.279 151.954 40.9799 155.543 37.3904V35.2966H154.347C151.655 35.5957 149.561 33.801 149.86 31.408L150.757 25.4256Z" fill="url(#paint13_linear_2694_36823)"/>
<path d="M163.021 24.5367C163.5 28 163.021 28.7156 161.825 32.0059C161.825 32.3051 161.526 32.6042 161.227 32.9033C161.227 33.5016 160.628 33.5016 160.329 33.5016C160.03 33.5016 159.731 33.2024 159.731 32.9033C158.235 31.1086 160.329 26.3226 157.936 26.3226C155.842 26.3226 157.637 30.5103 155.842 30.8094C154.646 30.5103 155.244 27.22 152.253 27.5191C151.056 27.5191 153.449 26.2009 152.253 26.5C151.056 26.7992 150 27 148.664 27.2992C147 27.5 146 26.7948 146 25C146 24.2331 145.971 23.4194 147.168 22.2229C150.5 19.5 153.392 19.1525 154.347 19.1525C157.936 19.1525 161.825 21.2463 163.021 24.5367Z" fill="url(#paint14_linear_2694_36823)"/>
<path d="M0 131.629C2.99331 135.74 47.8929 139 102.67 139C157.448 139 202.348 135.74 205.341 131.629H0Z" fill="#F1F5FD"/>
<g clip-path="url(#clip0_2694_36823)">
<path d="M82.9971 79.9982C91.2821 79.9982 97.9983 73.2819 97.9983 64.997C97.9983 56.712 91.2821 49.9957 82.9971 49.9957C74.7121 49.9957 67.9958 56.712 67.9958 64.997C67.9958 73.2819 74.7121 79.9982 82.9971 79.9982Z" fill="url(#paint15_linear_2694_36823)"/>
<path d="M82.9988 76.6135C76.5846 76.6135 71.384 71.4129 71.384 64.9988C71.384 58.5846 76.5846 53.384 82.9988 53.384C89.4129 53.384 94.6135 58.5846 94.6135 64.9988C94.6061 71.4104 89.4104 76.6061 82.9988 76.6135ZM82.9988 54.6325C77.2724 54.6325 72.63 59.2749 72.63 65.0013C72.63 70.7277 77.2724 75.3701 82.9988 75.3701C88.7252 75.3701 93.3676 70.7252 93.3676 65.0013C93.3601 59.2774 88.7227 54.64 82.9988 54.6325Z" fill="white"/>
<path d="M84.6508 67.9068C84.6682 67.5106 84.5312 67.1219 84.2695 66.8228C83.8957 66.469 83.4472 66.2024 82.9588 66.0429C81.7427 65.5993 80.8407 65.1059 80.2526 64.5602C79.6645 64.0145 79.3705 63.247 79.3705 62.2577C79.3406 61.4154 79.6595 60.5956 80.2526 59.995C80.898 59.3795 81.7403 59.0132 82.6299 58.9559V57.1917H83.9356V58.9734C84.8178 59.073 85.6301 59.5041 86.2057 60.1794C86.7564 60.8423 87.0256 61.702 87.0156 62.7586L86.9907 62.7984H84.6508C84.6832 62.2701 84.5436 61.7444 84.2521 61.3033C83.7338 60.6828 82.8068 60.5981 82.1863 61.1189C82.1614 61.1388 82.1365 61.1612 82.114 61.1837C81.8723 61.4902 81.7502 61.8739 81.7702 62.2627C81.7527 62.6439 81.8848 63.0152 82.1365 63.3018C82.5227 63.6556 82.9812 63.9223 83.4796 64.0867C84.6882 64.5627 85.5853 65.071 86.1684 65.6143C86.7515 66.155 87.043 66.915 87.043 67.8894C87.0829 68.7391 86.7639 69.5689 86.1634 70.172C85.5055 70.7725 84.6633 71.1289 83.7736 71.1812V72.8059H82.4679V71.1887C81.5235 71.1189 80.6314 70.7376 79.9311 70.0997C79.2633 69.4792 78.9394 68.5647 78.9618 67.3611L78.9792 67.3212H81.3191C81.3191 68.0538 81.4886 68.5796 81.825 68.8986C82.1738 69.2201 82.6348 69.392 83.1108 69.3746C83.5319 69.402 83.9456 69.2599 84.2571 68.9759C84.5262 68.6918 84.6707 68.303 84.6508 67.9068Z" fill="white"/>
</g>
<g clip-path="url(#clip1_2694_36823)">
<path d="M72.4975 46.9984C77.1923 46.9984 80.9982 43.1925 80.9982 38.4977C80.9982 33.8028 77.1923 29.9969 72.4975 29.9969C67.8027 29.9969 63.9968 33.8028 63.9968 38.4977C63.9968 43.1925 67.8027 46.9984 72.4975 46.9984Z" fill="url(#paint16_linear_2694_36823)"/>
<path d="M72.4992 45.081C68.8645 45.081 65.9175 42.134 65.9175 38.4993C65.9175 34.8646 68.8645 31.9176 72.4992 31.9176C76.1339 31.9176 79.0809 34.8646 79.0809 38.4993C79.0766 42.1326 76.1324 45.0768 72.4992 45.081ZM72.4992 32.6251C69.2542 32.6251 66.6235 35.2558 66.6235 38.5007C66.6235 41.7457 69.2542 44.3764 72.4992 44.3764C75.7441 44.3764 78.3748 41.7442 78.3748 38.5007C78.3706 35.2572 75.7427 32.6293 72.4992 32.6251Z" fill="white"/>
<path d="M73.4356 40.1472C73.4455 39.9227 73.3678 39.7024 73.2195 39.533C73.0077 39.3325 72.7535 39.1814 72.4768 39.091C71.7877 38.8397 71.2765 38.5601 70.9433 38.2508C70.61 37.9416 70.4434 37.5067 70.4434 36.9461C70.4264 36.4688 70.6072 36.0042 70.9433 35.6639C71.309 35.3151 71.7863 35.1075 72.2904 35.0751V34.0753H73.0303V35.085C73.5302 35.1414 73.9905 35.3857 74.3167 35.7684C74.6288 36.144 74.7813 36.6312 74.7756 37.2299L74.7615 37.2525H73.4356C73.4539 36.9531 73.3749 36.6552 73.2096 36.4052C72.9159 36.0536 72.3906 36.0056 72.039 36.3008C72.0249 36.312 72.0108 36.3248 71.9981 36.3375C71.8611 36.5112 71.7919 36.7286 71.8032 36.9489C71.7933 37.1649 71.8682 37.3753 72.0108 37.5377C72.2297 37.7382 72.4895 37.8893 72.7719 37.9825C73.4568 38.2522 73.9651 38.5403 74.2955 38.8481C74.626 39.1546 74.7912 39.5852 74.7912 40.1374C74.8138 40.6189 74.633 41.0891 74.2927 41.4308C73.9199 41.7711 73.4426 41.9731 72.9385 42.0027V42.9234H72.1986V42.007C71.6634 41.9674 71.1579 41.7514 70.7611 41.3899C70.3827 41.0383 70.1991 40.52 70.2118 39.838L70.2217 39.8154H71.5476C71.5476 40.2306 71.6436 40.5285 71.8343 40.7093C72.032 40.8914 72.2932 40.9888 72.5629 40.979C72.8015 40.9945 73.036 40.914 73.2125 40.753C73.365 40.5921 73.4469 40.3718 73.4356 40.1472Z" fill="white"/>
</g>
<g filter="url(#filter2_d_2694_36823)">
<path d="M133.789 51.0308C133.73 50.6385 133.521 50.2831 133.207 50.0394C132.773 49.7634 132.282 49.5872 131.772 49.5238C130.494 49.3204 129.514 49.0081 128.833 48.5846C128.151 48.1611 127.716 47.4637 127.528 46.4926C127.338 45.6715 127.494 44.8059 127.962 44.1033C128.478 43.3759 129.235 42.8557 130.097 42.6297L129.761 40.8979L131.043 40.6488L131.382 42.3978C132.267 42.3274 133.147 42.5956 133.841 43.1487C134.508 43.6943 134.936 44.4869 135.128 45.526L135.111 45.5699L132.814 46.0162C132.745 45.4914 132.508 45.0019 132.137 44.6246C131.51 44.1143 130.584 44.208 130.074 44.8376C130.054 44.8619 130.034 44.8887 130.016 44.915C129.837 45.262 129.79 45.662 129.884 46.0398C129.94 46.4174 130.14 46.7566 130.442 46.9899C130.889 47.2636 131.39 47.4379 131.91 47.5043C133.187 47.7409 134.165 48.0688 134.841 48.4909C135.516 48.9104 135.948 49.6009 136.133 50.5573C136.335 51.3839 136.18 52.2593 135.705 52.9658C135.174 53.6808 134.415 54.1913 133.552 54.4123L133.862 56.0072L132.58 56.2563L132.272 54.6688C131.331 54.7804 130.383 54.5763 129.574 54.0837C128.8 53.602 128.307 52.7661 128.1 51.5803L128.109 51.5378L130.406 51.0915C130.546 51.8106 130.813 52.2945 131.204 52.5434C131.608 52.7924 132.093 52.8732 132.557 52.7653C132.975 52.7119 133.354 52.4936 133.606 52.1553C133.816 51.8251 133.884 51.4159 133.789 51.0308Z" fill="white"/>
</g>
<path d="M50.5507 113.956V122H48.6892V115.45H47.0804V113.956H50.5507ZM57.9577 120.483V122H51.8791V120.793L54.9816 117.863C55.311 117.549 55.5332 117.281 55.6481 117.059C55.763 116.829 55.8204 116.603 55.8204 116.381C55.8204 116.059 55.7094 115.814 55.4872 115.646C55.2727 115.469 54.9548 115.381 54.5335 115.381C54.1811 115.381 53.8632 115.45 53.5797 115.588C53.2963 115.718 53.0588 115.917 52.8673 116.186L51.5113 115.312C51.8254 114.845 52.2583 114.481 52.8098 114.221C53.3614 113.953 53.9934 113.818 54.7058 113.818C55.3033 113.818 55.8243 113.918 56.2686 114.117C56.7206 114.309 57.0691 114.585 57.3143 114.945C57.5671 115.297 57.6935 115.714 57.6935 116.197C57.6935 116.634 57.6015 117.044 57.4177 117.427C57.2338 117.81 56.8776 118.246 56.349 118.737L54.499 120.483H57.9577ZM62.4834 117.231C63.1881 117.346 63.7282 117.61 64.1036 118.024C64.479 118.43 64.6666 118.936 64.6666 119.541C64.6666 120.008 64.5441 120.441 64.2989 120.839C64.0538 121.23 63.6784 121.544 63.1728 121.782C62.6749 122.019 62.062 122.138 61.3343 122.138C60.7674 122.138 60.2082 122.065 59.6566 121.92C59.1127 121.766 58.6492 121.552 58.2662 121.276L58.9901 119.851C59.2966 120.081 59.6489 120.261 60.0473 120.391C60.4533 120.514 60.867 120.575 61.2883 120.575C61.7556 120.575 62.1233 120.487 62.3914 120.311C62.6596 120.127 62.7936 119.87 62.7936 119.541C62.7936 118.882 62.2919 118.553 61.2883 118.553H60.438V117.323L62.0927 115.45H58.6684V113.956H64.2989V115.163L62.4834 117.231ZM74.7925 116.978C75.9262 116.978 76.7612 117.204 77.2975 117.656C77.8414 118.108 78.1133 118.714 78.1133 119.472C78.1133 119.962 77.9908 120.41 77.7456 120.816C77.5005 121.215 77.1251 121.537 76.6195 121.782C76.1216 122.019 75.5049 122.138 74.7695 122.138C74.2026 122.138 73.6434 122.065 73.0918 121.92C72.5479 121.766 72.0844 121.552 71.7014 121.276L72.4368 119.851C72.7433 120.081 73.0956 120.261 73.494 120.391C73.8923 120.514 74.3022 120.575 74.7235 120.575C75.1908 120.575 75.5585 120.483 75.8267 120.299C76.0948 120.115 76.2288 119.859 76.2288 119.529C76.2288 119.185 76.0871 118.924 75.8037 118.748C75.5279 118.572 75.0453 118.484 74.3558 118.484H72.2989L72.7126 113.956H77.6192V115.45H74.2639L74.1375 116.978H74.7925ZM86.2343 120.311H84.9243V122H83.1087V120.311H78.7767V119.058L82.5687 113.956H84.5221L81.0059 118.794H83.1662V117.289H84.9243V118.794H86.2343V120.311ZM92.7783 120.483V122H86.6997V120.793L89.8022 117.863C90.1316 117.549 90.3538 117.281 90.4687 117.059C90.5836 116.829 90.641 116.603 90.641 116.381C90.641 116.059 90.53 115.814 90.3078 115.646C90.0933 115.469 89.7754 115.381 89.3541 115.381C89.0017 115.381 88.6838 115.45 88.4003 115.588C88.1169 115.718 87.8794 115.917 87.6879 116.186L86.3319 115.312C86.646 114.845 87.0789 114.481 87.6304 114.221C88.182 113.953 88.814 113.818 89.5264 113.818C90.1239 113.818 90.6449 113.918 91.0892 114.117C91.5412 114.309 91.8897 114.585 92.1349 114.945C92.3877 115.297 92.5141 115.714 92.5141 116.197C92.5141 116.634 92.4221 117.044 92.2383 117.427C92.0544 117.81 91.6982 118.246 91.1696 118.737L89.3196 120.483H92.7783ZM105.559 117.771C105.957 117.971 106.26 118.231 106.467 118.553C106.681 118.874 106.789 119.246 106.789 119.667C106.789 120.165 106.647 120.602 106.363 120.977C106.08 121.345 105.682 121.632 105.168 121.839C104.655 122.038 104.061 122.138 103.387 122.138C102.713 122.138 102.119 122.038 101.606 121.839C101.101 121.632 100.706 121.345 100.423 120.977C100.147 120.602 100.009 120.165 100.009 119.667C100.009 119.246 100.112 118.874 100.319 118.553C100.534 118.231 100.836 117.971 101.227 117.771C100.928 117.587 100.698 117.358 100.538 117.082C100.377 116.798 100.296 116.477 100.296 116.117C100.296 115.649 100.427 115.243 100.687 114.899C100.947 114.554 101.311 114.29 101.779 114.106C102.246 113.914 102.782 113.818 103.387 113.818C104 113.818 104.54 113.914 105.008 114.106C105.483 114.29 105.85 114.554 106.111 114.899C106.371 115.243 106.501 115.649 106.501 116.117C106.501 116.477 106.421 116.798 106.26 117.082C106.099 117.358 105.866 117.587 105.559 117.771ZM103.387 115.186C103.012 115.186 102.709 115.278 102.48 115.462C102.257 115.638 102.146 115.883 102.146 116.197C102.146 116.504 102.257 116.745 102.48 116.921C102.702 117.097 103.004 117.185 103.387 117.185C103.77 117.185 104.077 117.097 104.307 116.921C104.536 116.745 104.651 116.504 104.651 116.197C104.651 115.883 104.536 115.638 104.307 115.462C104.077 115.278 103.77 115.186 103.387 115.186ZM103.387 120.77C103.855 120.77 104.222 120.667 104.49 120.46C104.766 120.246 104.904 119.962 104.904 119.61C104.904 119.258 104.766 118.978 104.49 118.771C104.222 118.564 103.855 118.461 103.387 118.461C102.928 118.461 102.564 118.564 102.296 118.771C102.028 118.978 101.894 119.258 101.894 119.61C101.894 119.97 102.028 120.253 102.296 120.46C102.564 120.667 102.928 120.77 103.387 120.77ZM113.938 113.956V115.163L110.95 122H108.928L111.812 115.473H109.146V116.783H107.491V113.956H113.938ZM118.414 116.955C118.928 116.955 119.395 117.059 119.816 117.266C120.238 117.473 120.571 117.768 120.816 118.151C121.061 118.526 121.184 118.963 121.184 119.461C121.184 119.997 121.05 120.468 120.782 120.874C120.513 121.28 120.146 121.594 119.678 121.816C119.219 122.031 118.706 122.138 118.139 122.138C117.013 122.138 116.132 121.793 115.496 121.104C114.86 120.414 114.542 119.43 114.542 118.151C114.542 117.239 114.714 116.458 115.059 115.806C115.404 115.155 115.883 114.661 116.495 114.324C117.116 113.987 117.832 113.818 118.644 113.818C119.073 113.818 119.483 113.868 119.874 113.968C120.272 114.06 120.609 114.194 120.885 114.37L120.196 115.737C119.797 115.469 119.295 115.335 118.69 115.335C118.008 115.335 117.468 115.534 117.07 115.933C116.672 116.331 116.457 116.91 116.427 117.668C116.901 117.193 117.564 116.955 118.414 116.955ZM118.035 120.747C118.434 120.747 118.755 120.64 119.001 120.426C119.253 120.211 119.38 119.92 119.38 119.552C119.38 119.185 119.253 118.894 119.001 118.679C118.755 118.457 118.426 118.346 118.012 118.346C117.606 118.346 117.273 118.461 117.013 118.691C116.752 118.913 116.622 119.2 116.622 119.552C116.622 119.905 116.748 120.192 117.001 120.414C117.254 120.636 117.599 120.747 118.035 120.747Z" fill="white"/>
<defs>
<filter id="filter0_d_2694_36823" x="123" y="62.2858" width="89.9285" height="101.714" filterUnits="userSpaceOnUse" color-interpolation-filters="sRGB">
<feFlood flood-opacity="0" result="BackgroundImageFix"/>
<feColorMatrix in="SourceAlpha" type="matrix" values="0 0 0 0 0 0 0 0 0 0 0 0 0 0 0 0 0 0 127 0" result="hardAlpha"/>
<feMorphology radius="2" operator="dilate" in="SourceAlpha" result="effect1_dropShadow_2694_36823"/>
<feOffset/>
<feGaussianBlur stdDeviation="15"/>
<feComposite in2="hardAlpha" operator="out"/>
<feColorMatrix type="matrix" values="0 0 0 0 0.073125 0 0 0 0 0.311952 0 0 0 0 0.4875 0 0 0 0.05 0"/>
<feBlend mode="normal" in2="BackgroundImageFix" result="effect1_dropShadow_2694_36823"/>
<feBlend mode="normal" in="SourceGraphic" in2="effect1_dropShadow_2694_36823" result="shape"/>
</filter>
<filter id="filter1_d_2694_36823" x="123" y="76.4286" width="97" height="87.5714" filterUnits="userSpaceOnUse" color-interpolation-filters="sRGB">
<feFlood flood-opacity="0" result="BackgroundImageFix"/>
<feColorMatrix in="SourceAlpha" type="matrix" values="0 0 0 0 0 0 0 0 0 0 0 0 0 0 0 0 0 0 127 0" result="hardAlpha"/>
<feMorphology radius="2" operator="dilate" in="SourceAlpha" result="effect1_dropShadow_2694_36823"/>
<feOffset/>
<feGaussianBlur stdDeviation="15"/>
<feComposite in2="hardAlpha" operator="out"/>
<feColorMatrix type="matrix" values="0 0 0 0 0.073125 0 0 0 0 0.311952 0 0 0 0 0.4875 0 0 0 0.05 0"/>
<feBlend mode="normal" in2="BackgroundImageFix" result="effect1_dropShadow_2694_36823"/>
<feBlend mode="normal" in="SourceGraphic" in2="effect1_dropShadow_2694_36823" result="shape"/>
</filter>
<filter id="filter2_d_2694_36823" x="97.4487" y="20.6488" width="68.771" height="75.6075" filterUnits="userSpaceOnUse" color-interpolation-filters="sRGB">
<feFlood flood-opacity="0" result="BackgroundImageFix"/>
<feColorMatrix in="SourceAlpha" type="matrix" values="0 0 0 0 0 0 0 0 0 0 0 0 0 0 0 0 0 0 127 0" result="hardAlpha"/>
<feOffset dy="10"/>
<feGaussianBlur stdDeviation="15"/>
<feColorMatrix type="matrix" values="0 0 0 0 0 0 0 0 0 0 0 0 0 0 0 0 0 0 0.1 0"/>
<feBlend mode="normal" in2="BackgroundImageFix" result="effect1_dropShadow_2694_36823"/>
<feBlend mode="normal" in="SourceGraphic" in2="effect1_dropShadow_2694_36823" result="shape"/>
</filter>
<linearGradient id="paint0_linear_2694_36823" x1="109.718" y1="15.3868" x2="109.718" y2="0.849506" gradientUnits="userSpaceOnUse">
<stop stop-color="white"/>
<stop offset="1" stop-color="#F1F5FD"/>
</linearGradient>
<linearGradient id="paint1_linear_2694_36823" x1="188.102" y1="62.5913" x2="188.102" y2="51.416" gradientUnits="userSpaceOnUse">
<stop stop-color="white"/>
<stop offset="1" stop-color="#F1F5FD"/>
</linearGradient>
<linearGradient id="paint2_linear_2694_36823" x1="20.2536" y1="55.852" x2="20.2536" y2="48.5474" gradientUnits="userSpaceOnUse">
<stop stop-color="white"/>
<stop offset="1" stop-color="#F1F5FD"/>
</linearGradient>
<linearGradient id="paint3_linear_2694_36823" x1="36.0802" y1="97.7291" x2="165.474" y2="97.7291" gradientUnits="userSpaceOnUse">
<stop stop-color="#F1F5FD"/>
<stop offset="1" stop-color="#2499EF" stop-opacity="0.3"/>
</linearGradient>
<linearGradient id="paint4_linear_2694_36823" x1="37.4114" y1="26.6667" x2="71.8434" y2="71.6666" gradientUnits="userSpaceOnUse">
<stop stop-color="#F1F5FD"/>
<stop offset="1" stop-color="#AAC8F9"/>
</linearGradient>
<linearGradient id="paint5_linear_2694_36823" x1="33.3164" y1="29.8015" x2="67.7483" y2="74.7984" gradientUnits="userSpaceOnUse">
<stop stop-color="#F1F5FD"/>
<stop offset="1" stop-color="#AAC8F9"/>
</linearGradient>
<linearGradient id="paint6_linear_2694_36823" x1="47.0879" y1="19.2604" x2="81.5228" y2="64.2603" gradientUnits="userSpaceOnUse">
<stop stop-color="#F1F5FD"/>
<stop offset="1" stop-color="#AAC8F9"/>
</linearGradient>
<linearGradient id="paint7_linear_2694_36823" x1="142.762" y1="130.728" x2="135.682" y2="130.728" gradientUnits="userSpaceOnUse">
<stop stop-color="#416D99"/>
<stop offset="1" stop-color="#244D77"/>
</linearGradient>
<linearGradient id="paint8_linear_2694_36823" x1="139.585" y1="111.103" x2="149.136" y2="83.3324" gradientUnits="userSpaceOnUse">
<stop stop-color="#416D99"/>
<stop offset="1" stop-color="#244D77"/>
</linearGradient>
<linearGradient id="paint9_linear_2694_36823" x1="155.957" y1="100.302" x2="164.556" y2="98.6624" gradientUnits="userSpaceOnUse">
<stop stop-color="#416D99"/>
<stop offset="1" stop-color="#244D77"/>
</linearGradient>
<linearGradient id="paint10_linear_2694_36823" x1="176.117" y1="129.529" x2="169.689" y2="129.529" gradientUnits="userSpaceOnUse">
<stop stop-color="#416D99"/>
<stop offset="1" stop-color="#244D77"/>
</linearGradient>
<linearGradient id="paint11_linear_2694_36823" x1="148.5" y1="31.5" x2="130.604" y2="70.1066" gradientUnits="userSpaceOnUse">
<stop stop-color="#FF316F"/>
<stop offset="1" stop-color="#B4204C"/>
</linearGradient>
<linearGradient id="paint12_linear_2694_36823" x1="147.653" y1="46.9418" x2="116.71" y2="52.4485" gradientUnits="userSpaceOnUse">
<stop stop-color="#C72052"/>
<stop offset="1" stop-color="#FF316F"/>
</linearGradient>
<linearGradient id="paint13_linear_2694_36823" x1="155.881" y1="32.6673" x2="156.437" y2="25.5153" gradientUnits="userSpaceOnUse">
<stop stop-color="#F9C7A5"/>
<stop offset="1" stop-color="#F9A395"/>
</linearGradient>
<linearGradient id="paint14_linear_2694_36823" x1="163.762" y1="24.7551" x2="141.399" y2="24.7551" gradientUnits="userSpaceOnUse">
<stop stop-color="#416D99"/>
<stop offset="1" stop-color="#244D77"/>
</linearGradient>
<linearGradient id="paint15_linear_2694_36823" x1="82.9971" y1="49.9957" x2="82.9971" y2="79.9982" gradientUnits="userSpaceOnUse">
<stop stop-color="#F69C25"/>
<stop offset="1" stop-color="#FFAC3F"/>
</linearGradient>
<linearGradient id="paint16_linear_2694_36823" x1="72.4975" y1="29.9969" x2="72.4975" y2="46.9984" gradientUnits="userSpaceOnUse">
<stop stop-color="#F69C25"/>
<stop offset="1" stop-color="#FFAC3F"/>
</linearGradient>
<clipPath id="clip0_2694_36823">
<rect width="30" height="30" fill="white" transform="translate(68 50)"/>
</clipPath>
<clipPath id="clip1_2694_36823">
<rect width="17" height="17" fill="white" transform="translate(64 30)"/>
</clipPath>
</defs>
</svg>
