<svg height="512" viewBox="0 0 152 152" width="512" xmlns="http://www.w3.org/2000/svg"><g id="Layer_2" data-name="Layer 2"><g id="_11.reddit" data-name="11.reddit"><circle id="background" cx="76" cy="76" fill="#ff4500" r="76"/><path id="icon" d="m105.53 67.48a8.51 8.51 0 0 0 -6.07 2.58 40.71 40.71 0 0 0 -22-6.88l4.47-20.28 14.13 3.22a6.34 6.34 0 0 0 6.28 6.37 6.46 6.46 0 1 0 -5.66-9.33l-15.6-3.51a1.5 1.5 0 0 0 -1.76 1.16l-4.87 22.36a41.27 41.27 0 0 0 -21.84 7 8.46 8.46 0 0 0 -6.15-2.65c-8.9 0-11.82 12.12-3.66 16.27a18.31 18.31 0 0 0 -.42 4c0 13.62 15.12 24.66 33.69 24.66s33.76-11 33.76-24.66a15.83 15.83 0 0 0 -.49-4.08c8-4.16 5-16.2-3.81-16.2zm-49.79 17.13a6.32 6.32 0 1 1 6.36 6.39 6.38 6.38 0 0 1 -6.36-6.37zm34.32 15.19c-5.83 5.92-22.28 5.92-28.11 0a1.54 1.54 0 0 1 2.11-2.23c4.45 4.64 19.22 4.72 23.87 0a1.54 1.54 0 0 1 2.13 2.23zm-.13-8.8a6.41 6.41 0 1 1 6.36-6.36 6.33 6.33 0 0 1 -6.36 6.36z" fill="#fff"/></g></g></svg>