<svg height="512" viewBox="0 0 152 152" width="512" xmlns="http://www.w3.org/2000/svg"><g id="Layer_2" data-name="Layer 2"><g id="_03.skype" data-name="03.skype"><circle id="background" cx="76" cy="76" fill="#1c98d6" r="76"/><path id="icon" d="m110.94 81.8a9.76 9.76 0 0 1 -1.77-5.8 33.18 33.18 0 0 0 -44.58-31.15 9.85 9.85 0 0 1 -6 .28 16.06 16.06 0 0 0 -5.53-.56 16.19 16.19 0 0 0 -12 25.63 9.78 9.78 0 0 1 1.77 5.8 33.18 33.18 0 0 0 44.58 31.15 9.85 9.85 0 0 1 6-.28 16.19 16.19 0 0 0 20.59-14.73 16.13 16.13 0 0 0 -3.06-10.34zm-34.94-12.05 1.22.3c6.68 1.59 16.78 4 16.78 15.13a12.12 12.12 0 0 1 -7.6 11.82 26.77 26.77 0 0 1 -10.4 1.67h-.47c-10.49 0-17.11-8.16-17.39-8.51a5 5 0 1 1 7.8-6.16s4 4.57 9.59 4.74h.47c6.36.1 7.84-1.86 8-3.53.24-2-1.43-3.48-8-5.15l-1.09-.27c-6.37-1.51-16-3.8-16-14.05 0-3.14 1.25-13.22 17.07-13.6h.94c10.55 0 16.78 8.31 17 8.67a5 5 0 0 1 -8 5.94 15 15 0 0 0 -9-4.62l-.92-.13c-3.7-.1-7.1 1.3-7.1 3.28 0 2.16 1.02 2.98 7.1 4.47z" fill="#fff"/></g></g></svg>