<svg height="512" viewBox="0 0 152 152" width="512" xmlns="http://www.w3.org/2000/svg"><g id="Layer_2" data-name="Layer 2"><g id="_22.soundcloud" data-name="22.soundcloud"><circle id="background" cx="76" cy="76" fill="#ff3412" r="76"/><g id="icon" fill="#fff"><path d="m39.16 87.91a.31.31 0 0 1 -.3.29.32.32 0 0 1 -.31-.29l-.55-4.15.55-4.22a.32.32 0 0 1 .31-.3.31.31 0 0 1 .3.3l.66 4.22z"/><path d="m42 90.43a.32.32 0 0 1 -.64 0l-.74-6.68.74-6.82a.32.32 0 0 1 .64 0l.85 6.82z"/><path d="m45 91.56a.39.39 0 0 1 -.38.37.38.38 0 0 1 -.38-.37l-.71-7.8.71-8.1a.38.38 0 0 1 .38-.37.4.4 0 0 1 .38.37l.8 8.1z"/><path d="m48.12 91.81a.47.47 0 0 1 -.45.44.46.46 0 0 1 -.45-.44l-.67-8 .67-8.32a.46.46 0 0 1 .45-.44.47.47 0 0 1 .45.44l.75 8.32z"/><path d="m51.21 91.87a.51.51 0 0 1 -1 0l-.63-8.11.61-7.76a.51.51 0 0 1 1 0l.72 7.72z"/><path d="m54.34 91.88a.61.61 0 0 1 -.58.58.6.6 0 0 1 -.58-.57l-.59-8.12.59-12.55a.58.58 0 0 1 1.16 0l.66 12.54z"/><path d="m57.44 91.87a.66.66 0 0 1 -.65.63.65.65 0 0 1 -.63-.63l-.56-8.06.56-15.43a.64.64 0 0 1 .63-.64.66.66 0 0 1 .65.64l.63 15.43z"/><path d="m60.66 91.75a.72.72 0 0 1 -.71.7.7.7 0 0 1 -.7-.69l-.52-8 .52-16.72a.71.71 0 0 1 .7-.7.72.72 0 0 1 .71.7l.58 16.72z"/><path d="m63.86 91.7a.77.77 0 0 1 -1.54 0l-.49-7.93.49-17.28a.77.77 0 1 1 1.54 0l.53 17.28z"/><path d="m67.08 91.63a.85.85 0 0 1 -.84.83.84.84 0 0 1 -.83-.82l-.41-7.87.43-16.84a.85.85 0 0 1 .84-.83.83.83 0 0 1 .83.83l.5 16.84z"/><path d="m70.32 91.58a.9.9 0 0 1 -1.8 0l-.4-7.81.4-16.22a.91.91 0 0 1 .9-.9.9.9 0 0 1 .9.9l.46 16.22z"/><path d="m73.63 90.76v.76a.93.93 0 0 1 -.29.68.95.95 0 0 1 -1.41-.07 1 1 0 0 1 -.22-.57s-.37-7.75-.37-7.77l.36-19.11v-.19a1 1 0 0 1 .44-.8.94.94 0 0 1 .52-.16.88.88 0 0 1 .53.17.94.94 0 0 1 .43.79l.38 19.28z"/><path d="m76.85 91.42a1 1 0 0 1 -2.06 0l-.21-3.77-.21-3.87.42-21v-.1a1.06 1.06 0 0 1 .38-.8 1.07 1.07 0 0 1 .65-.23 1 1 0 0 1 .53.14 1.1 1.1 0 0 1 .51.88l.45 21.07z"/><path d="m104.66 92.46h-25.92a1.11 1.11 0 0 1 -1-1.08v-29.67c0-.54.2-.82.9-1.09a16.5 16.5 0 0 1 22.36 13.91 9.47 9.47 0 0 1 3.62-.73 9.33 9.33 0 1 1 0 18.66z"/></g></g></g></svg>