<svg height="512" viewBox="0 0 152 152" width="512" xmlns="http://www.w3.org/2000/svg"><g id="Layer_2" data-name="Layer 2"><g id="_12.yahoo" data-name="12.yahoo"><circle id="background" cx="76" cy="76" fill="#430296" r="76"/><g id="icon" fill="#fff"><path d="m70.76 58-8.94 22.08-8.62-22.08a1.67 1.67 0 0 0 -1.57-1h-11.94a1.68 1.68 0 0 0 -1.56 2.32l16.12 39.52-4.12 10.16a1.69 1.69 0 0 0 1.56 2.32h11.58a1.69 1.69 0 0 0 1.56-1.06l20.64-51a1.68 1.68 0 0 0 -1.56-2.26h-11.59a1.66 1.66 0 0 0 -1.56 1z"/><path d="m99.16 41.7a1.69 1.69 0 0 1 1.56-1.06h11.59a1.69 1.69 0 0 1 1.57 2.36l-12.25 30.12a1.68 1.68 0 0 1 -1.56 1.06h-11.57a1.69 1.69 0 0 1 -1.57-2.32z"/><circle cx="89.42" cy="88.69" r="9.36"/></g></g></g></svg>