<svg height="512" viewBox="0 0 152 152" width="512" xmlns="http://www.w3.org/2000/svg"><g id="Layer_2" data-name="Layer 2"><g id="_04.youtube" data-name="04.youtube"><circle id="background" cx="76" cy="76" fill="#f20000" r="76"/><path id="icon" d="m112.22 57.72c-1.52-4.72-6.55-7.51-11.22-8.16a236.82 236.82 0 0 0 -50.08 0c-4.63.65-9.66 3.48-11.18 8.16a94.94 94.94 0 0 0 0 36.57c1.56 4.71 6.59 7.51 11.26 8.16a238.16 238.16 0 0 0 50.08 0c4.63-.65 9.66-3.49 11.18-8.16a94.94 94.94 0 0 0 -.04-36.57zm-45.31 32.84v-29.12l23.71 14.56c-7.99 4.91-15.75 9.69-23.71 14.56z" fill="#fff"/></g></g></svg>