<svg height="512" viewBox="0 0 64 64" width="512" xmlns="http://www.w3.org/2000/svg"><rect fill="#d8d7da" height="54" rx="2" width="42" x="11" y="7"/><rect fill="#e6e7e8" height="54" rx="2" width="42" x="7" y="3"/><path d="m11 59h38a2.006 2.006 0 0 0 2-2v-50h-2v48a2.006 2.006 0 0 1 -2 2h-36z" fill="#c6c5ca"/><path d="m17 3v7l-2-3-2 3v-7z" fill="#ff5023"/><path d="m49 40h2v2h-2z" fill="#acabb1"/><path d="m51 40h2v2h-2z" fill="#c6c5ca"/><path d="m49 22.71v32.29a2.006 2.006 0 0 1 -2 2h-34.49a122.174 122.174 0 0 0 20.35-15c.71-.64 1.42-1.31 2.12-2a88.167 88.167 0 0 0 14.02-17.29z" fill="#e0e0e2"/><path d="m49 40v2h-30a2.006 2.006 0 0 1 -2-2z" fill="#d1d3d4"/><path d="m49 40v2h-16.14c.71-.64 1.42-1.31 2.12-2z" fill="#bcbec0"/><rect fill="#96c8ef" height="24" rx="2" width="42" x="15" y="16"/><g fill="#fff"><path d="m24 27h-4v-5h-2v12h2v-5h4v5h2v-12h-2z"/><path d="m28 24h3v10h2v-10h3v-2h-8z"/><path d="m50 32v-10h-2v11a1 1 0 0 0 1 1h5v-2z"/><path d="m45.383 22.076a1 1 0 0 0 -1.09.217l-2.293 2.293-2.293-2.293a1 1 0 0 0 -1.707.707v11h2v-8.586l1.293 1.293a1 1 0 0 0 1.414 0l1.293-1.293v8.586h2v-11a1 1 0 0 0 -.617-.924z"/></g></svg>