<?xml version="1.0" standalone="no"?>
<!DOCTYPE svg PUBLIC "-//W3C//DTD SVG 20010904//EN"
 "http://www.w3.org/TR/2001/REC-SVG-20010904/DTD/svg10.dtd">
<svg version="1.0" xmlns="http://www.w3.org/2000/svg"
 width="500.000000pt" height="500.000000pt" viewBox="0 0 500.000000 500.000000"
 preserveAspectRatio="xMidYMid meet">

<g transform="translate(0.000000,500.000000) scale(0.100000,-0.100000)"
fill="#000000" stroke="none">
<path d="M0 2500 l0 -2500 2500 0 2500 0 0 2500 0 2500 -2500 0 -2500 0 0
-2500z m2652 1632 c49 -24 130 -100 205 -192 l45 -56 71 20 c56 15 106 19 222
20 l150 1 67 -33 c81 -39 156 -118 195 -203 25 -55 32 -61 90 -89 126 -58 211
-169 232 -301 13 -76 1 -232 -24 -331 -17 -67 -17 -68 4 -85 211 -176 253
-240 255 -388 1 -131 -39 -196 -212 -345 l-63 -55 16 -65 c24 -101 36 -253 26
-326 -20 -136 -101 -245 -230 -306 -64 -31 -68 -35 -99 -100 -61 -127 -171
-209 -312 -231 -78 -12 -218 0 -325 28 l-60 16 -29 -33 c-139 -160 -159 -178
-221 -209 -117 -57 -245 -49 -347 23 -41 30 -101 92 -180 187 l-28 32 -81 -20
c-106 -27 -247 -36 -324 -22 -130 24 -237 107 -296 229 -30 64 -35 69 -100
100 -125 60 -212 175 -227 305 -10 80 1 234 23 322 l18 69 -64 55 c-172 148
-202 198 -207 338 -4 82 -1 97 23 152 27 58 105 144 209 228 l39 32 -18 77
c-23 97 -32 229 -23 314 16 133 103 251 233 311 60 29 65 34 94 94 51 109 139
188 249 221 87 27 326 13 424 -25 24 -9 29 -6 64 37 87 107 160 175 219 204
55 27 67 29 155 26 75 -2 105 -8 142 -26z"/>
<path d="M2425 3961 c-17 -10 -59 -49 -93 -87 l-62 -69 32 -25 c62 -47 129
-114 164 -162 l36 -48 28 38 c35 49 91 106 153 158 l49 39 -58 65 c-31 36 -73
75 -93 87 -45 29 -114 30 -156 4z"/>
<path d="M1675 3726 c-48 -22 -83 -51 -73 -61 2 -3 40 -10 83 -16 43 -6 105
-19 139 -30 34 -10 64 -19 68 -19 7 0 88 114 88 123 0 9 -128 27 -191 27 -46
0 -78 -7 -114 -24z"/>
<path d="M3072 3738 c-35 -7 -50 -13 -45 -21 60 -100 76 -119 96 -113 90 22
200 46 241 51 l48 7 -23 25 c-55 59 -170 78 -317 51z"/>
<path d="M2109 3583 l-42 -67 24 -15 c62 -41 171 -136 215 -187 64 -76 149
-205 170 -260 9 -24 20 -44 23 -44 4 0 20 26 35 57 74 151 205 308 334 400 34
25 62 48 62 52 0 12 -79 131 -86 131 -4 0 -31 -18 -61 -41 -66 -50 -135 -140
-179 -237 -24 -53 -40 -75 -59 -82 -71 -27 -105 -3 -163 113 -23 46 -63 108
-89 138 -46 50 -118 109 -134 109 -4 0 -26 -30 -50 -67z"/>
<path d="M1530 3403 c0 -60 21 -181 35 -203 3 -5 42 8 87 28 l81 37 37 80 c21
44 36 83 34 87 -8 13 -144 38 -208 38 l-66 0 0 -67z"/>
<path d="M3263 3453 c-35 -8 -63 -19 -63 -24 0 -5 15 -44 33 -86 l32 -76 84
-39 c46 -21 85 -37 87 -35 10 10 35 132 40 199 l7 78 -79 -1 c-43 0 -107 -7
-141 -16z"/>
<path d="M1304 3377 c-38 -47 -54 -97 -54 -172 0 -59 18 -185 27 -185 2 0 31
18 64 41 51 34 60 45 54 62 -15 52 -45 187 -52 237 l-8 54 -31 -37z"/>
<path d="M3656 3341 c-6 -62 -31 -171 -51 -223 -5 -12 9 -26 57 -57 79 -50 80
-48 86 110 5 126 -7 167 -61 217 l-24 23 -7 -70z"/>
<path d="M2095 3175 c-38 -7 -102 -22 -142 -34 l-72 -22 -20 -67 c-11 -37 -26
-102 -34 -145 l-15 -78 55 -44 c115 -89 315 -168 466 -182 l70 -6 -6 69 c-13
137 -67 288 -148 415 -70 109 -70 109 -154 94z"/>
<path d="M2778 3116 c-85 -119 -143 -264 -167 -416 -18 -109 -21 -104 58 -96
148 13 343 88 464 178 l59 43 -7 45 c-10 73 -57 244 -69 252 -14 9 -168 47
-234 57 l-53 8 -51 -71z"/>
<path d="M1405 2882 c-170 -114 -351 -270 -371 -318 -18 -43 -18 -98 0 -132
17 -32 105 -117 202 -194 83 -66 231 -168 244 -168 4 0 29 29 54 64 92 130
224 241 380 322 l80 42 -65 32 c-155 79 -283 184 -380 314 -34 44 -64 82 -68
83 -3 1 -38 -19 -76 -45z"/>
<path d="M3477 2877 c-84 -128 -231 -255 -386 -336 l-84 -44 90 -46 c50 -26
117 -67 149 -91 76 -57 181 -165 229 -235 21 -30 42 -55 47 -55 28 0 284 190
380 281 109 105 115 184 20 276 -100 96 -375 303 -402 303 -4 0 -23 -24 -43
-53z"/>
<path d="M2250 2380 c-148 -31 -275 -88 -386 -171 l-51 -39 9 -58 c12 -77 47
-207 61 -226 12 -16 161 -58 247 -70 l45 -6 43 57 c87 117 160 305 180 466 l9
67 -36 -1 c-20 0 -74 -9 -121 -19z"/>
<path d="M2600 2377 c0 -43 29 -181 54 -253 28 -84 66 -161 116 -234 59 -87
54 -85 172 -61 57 11 121 26 142 34 47 16 55 36 88 197 l21 104 -44 38 c-98
85 -326 175 -491 194 -57 7 -58 6 -58 -19z"/>
<path d="M2459 1910 c-78 -151 -178 -269 -308 -367 -42 -32 -78 -59 -80 -60
-8 -5 82 -133 93 -133 15 0 94 66 133 110 39 45 87 125 104 173 19 54 52 82
99 82 51 0 71 -21 119 -119 41 -85 127 -189 185 -225 18 -12 36 -21 39 -21 8
0 87 116 87 128 0 5 -25 26 -57 48 -128 88 -245 224 -324 377 l-46 90 -44 -83z"/>
<path d="M1266 1953 c-3 -15 -8 -68 -12 -118 -8 -110 5 -163 51 -213 l33 -36
7 59 c5 51 29 158 50 231 6 21 5 22 -96 88 -26 16 -27 16 -33 -11z"/>
<path d="M3668 1941 c-31 -20 -60 -39 -63 -43 -3 -3 4 -39 16 -78 12 -40 27
-109 34 -154 l11 -81 32 33 c46 49 55 89 50 217 -3 62 -9 119 -14 127 -8 12
-18 9 -66 -21z"/>
<path d="M1547 1731 c-10 -38 -17 -102 -17 -141 l0 -73 75 6 c41 4 104 14 139
23 73 18 72 7 18 124 l-29 65 -80 33 c-44 17 -82 32 -85 32 -2 0 -12 -31 -21
-69z"/>
<path d="M3341 1766 l-75 -32 -34 -83 c-19 -45 -32 -84 -29 -87 11 -12 117
-34 189 -40 95 -8 96 -6 80 115 -14 107 -29 161 -45 160 -7 -1 -45 -15 -86
-33z"/>
<path d="M2472 1386 c-25 -37 -130 -139 -175 -171 l-27 -20 56 -65 c80 -91
112 -112 172 -112 67 0 99 19 172 103 l62 72 -34 26 c-61 47 -117 102 -155
152 -20 27 -40 49 -43 49 -3 0 -15 -15 -28 -34z"/>
<path d="M1810 1375 c-41 -13 -105 -27 -142 -30 -38 -4 -68 -11 -68 -15 0 -15
59 -58 96 -70 41 -14 240 -9 267 6 14 8 10 18 -24 72 -22 34 -43 61 -47 61 -4
-1 -41 -12 -82 -24z"/>
<path d="M3062 1336 c-49 -78 -51 -76 104 -83 127 -6 163 2 214 49 l35 32 -85
12 c-47 7 -114 22 -150 33 -36 12 -68 21 -71 21 -4 0 -25 -29 -47 -64z"/>
</g>
</svg>
