<svg width="88" height="88" viewBox="0 0 88 88" fill="none" xmlns="http://www.w3.org/2000/svg">
<circle cx="44" cy="44" r="44" fill="#022A53"/>
<path d="M37.6449 39.5266C42.8886 39.5266 47.1394 35.2758 47.1394 30.0321C47.1394 24.7884 42.8886 20.5376 37.6449 20.5376C32.4012 20.5376 28.1504 24.7884 28.1504 30.0321C28.1504 35.2758 32.4012 39.5266 37.6449 39.5266Z" fill="#FFC675"/>
<path d="M72.3764 64.6995H17.9609L44.0159 31.8848L47.6807 37.8816L51.0111 37.2153L57.3377 46.3926L62.8381 54.3717L64.6705 52.5393L72.3764 64.6995Z" fill="#0081FF"/>
<path d="M37.0197 54.8836L30.0234 59.0481L32.1234 64.6995H17.9609L44.0159 31.8848L36.0202 49.3866L37.0197 54.8836Z" fill="#0557A7"/>
<path d="M57.338 46.3926L52.0108 51.7186L42.0172 45.8884L36.0204 49.3866L32.8232 45.9817L44.0162 31.8848L47.6809 37.8816L51.0113 37.2153L57.338 46.3926Z" fill="white"/>
<path d="M44.0162 31.8848L36.0204 49.3866L32.8232 45.9817L44.0162 31.8848Z" fill="#88A6C9"/>
<path d="M47.6807 37.8818L49.9037 41.5195V37.437" fill="#88A6C9"/>
</svg>
