<svg width="820" height="131" viewBox="0 0 820 131" fill="none" xmlns="http://www.w3.org/2000/svg">
<path d="M58.6524 56.3196C74.2046 56.3196 86.8122 43.7121 86.8122 28.1598C86.8122 12.6076 74.2046 0 58.6524 0C43.1001 0 30.4926 12.6076 30.4926 28.1598C30.4926 43.7121 43.1001 56.3196 58.6524 56.3196Z" fill="#FFC675"/>
<path d="M161.663 130.981H0.271362L77.5482 33.655L88.4174 51.441L98.2952 49.4648L117.059 76.6839L133.373 100.349L138.808 94.9145L161.663 130.981Z" fill="#0081FF"/>
<path d="M56.7978 101.868L36.0475 114.219L42.2759 130.981H0.271362L77.5482 33.655L53.8335 85.5637L56.7978 101.868Z" fill="#0557A7"/>
<path d="M117.059 76.6839L101.26 92.4805L71.6196 75.1886L53.8336 85.5637L44.3511 75.4652L77.5483 33.655L88.4175 51.441L98.2953 49.4648L117.059 76.6839Z" fill="white"/>
<path d="M77.5483 33.655L53.8336 85.5637L44.3511 75.4652L77.5483 33.655Z" fill="#88A6C9"/>
<path d="M88.4172 51.4411L95.0106 62.2303V50.122" fill="#88A6C9"/>
<path d="M277.64 127.71C266.356 127.71 256.178 125.285 247.108 120.433C238.038 115.476 230.919 108.674 225.752 100.026C220.584 91.2721 218 81.5166 218 70.7592C218 60.0018 220.584 50.299 225.752 41.6509C230.919 32.8974 238.038 26.0949 247.108 21.2435C256.178 16.2866 266.356 13.8082 277.64 13.8082C288.925 13.8082 299.102 16.2866 308.172 21.2435C317.242 26.0949 324.361 32.8446 329.529 41.4927C334.697 50.1409 337.281 59.8963 337.281 70.7592C337.281 81.6221 334.697 91.3776 329.529 100.026C324.361 108.674 317.242 115.476 308.172 120.433C299.102 125.285 288.925 127.71 277.64 127.71ZM277.64 109.676C285.023 109.676 291.667 108.041 297.573 104.772C303.479 101.397 308.12 96.7563 311.495 90.8503C314.869 84.8388 316.557 78.1418 316.557 70.7592C316.557 63.3767 314.869 56.7324 311.495 50.8264C308.12 44.8149 303.479 40.1744 297.573 36.905C291.667 33.5301 285.023 31.8427 277.64 31.8427C270.258 31.8427 263.614 33.5301 257.707 36.905C251.801 40.1744 247.161 44.8149 243.786 50.8264C240.411 56.7324 238.724 63.3767 238.724 70.7592C238.724 78.1418 240.411 84.8388 243.786 90.8503C247.161 96.7563 251.801 101.397 257.707 104.772C263.614 108.041 270.258 109.676 277.64 109.676Z" fill="white"/>
<path d="M395.94 127.236C387.186 127.236 379.329 125.39 372.368 121.699C365.408 118.007 359.976 112.892 356.074 106.354C352.172 99.7093 350.221 92.2213 350.221 83.8896C350.221 75.5579 352.172 68.1226 356.074 61.5838C359.976 55.045 365.355 49.9299 372.21 46.2387C379.171 42.5474 387.081 40.7018 395.94 40.7018C404.271 40.7018 411.548 42.3892 417.771 45.7641C424.099 49.1389 428.845 53.9903 432.009 60.3182L416.822 69.1772C414.396 65.275 411.338 62.3748 407.646 60.4764C404.06 58.4726 400.106 57.4706 395.782 57.4706C388.399 57.4706 382.282 59.8963 377.431 64.7477C372.579 69.4936 370.154 75.8743 370.154 83.8896C370.154 91.9049 372.527 98.3383 377.272 103.19C382.124 107.936 388.294 110.309 395.782 110.309C400.106 110.309 404.06 109.359 407.646 107.461C411.338 105.457 414.396 102.504 416.822 98.6019L432.009 107.461C428.739 113.789 423.941 118.693 417.613 122.173C411.39 125.548 404.166 127.236 395.94 127.236Z" fill="white"/>
<path d="M500.965 121.541C498.645 123.439 495.798 124.863 492.423 125.812C489.153 126.761 485.673 127.236 481.982 127.236C472.701 127.236 465.529 124.81 460.467 119.959C455.405 115.107 452.873 108.041 452.873 98.7601V58.1034H438.952V42.2837H452.873V22.9837H472.648V42.2837H495.27V58.1034H472.648V98.2855C472.648 102.399 473.65 105.563 475.654 107.777C477.658 109.887 480.558 110.941 484.355 110.941C488.784 110.941 492.475 109.781 495.428 107.461L500.965 121.541Z" fill="white"/>
<path d="M549.505 40.7018C561.95 40.7018 571.441 43.7075 577.98 49.719C584.624 55.625 587.947 64.5895 587.947 76.6125V126.128H569.279V115.845C566.854 119.537 563.373 122.384 558.838 124.388C554.409 126.286 549.03 127.236 542.702 127.236C536.374 127.236 530.837 126.181 526.092 124.072C521.346 121.857 517.654 118.851 515.018 115.054C512.487 111.152 511.221 106.775 511.221 101.924C511.221 94.3306 514.016 88.2664 519.605 83.7314C525.301 79.0909 534.212 76.7707 546.341 76.7707H568.172V75.5051C568.172 69.5991 566.379 65.0641 562.793 61.9002C559.313 58.7362 554.092 57.1543 547.132 57.1543C542.386 57.1543 537.693 57.8925 533.052 59.369C528.517 60.8455 524.668 62.9021 521.504 65.5387L513.752 51.1428C518.182 47.7679 523.508 45.184 529.73 43.3911C535.952 41.5982 542.544 40.7018 549.505 40.7018ZM546.815 112.84C551.772 112.84 556.149 111.732 559.946 109.518C563.848 107.197 566.59 103.928 568.172 99.7093V89.9011H547.765C536.374 89.9011 530.679 93.6451 530.679 101.133C530.679 104.719 532.103 107.566 534.951 109.676C537.798 111.785 541.753 112.84 546.815 112.84Z" fill="white"/>
<path d="M690.879 41.6509L654.651 126.128H634.244L598.017 41.6509H618.582L644.843 104.297L671.895 41.6509H690.879Z" fill="white"/>
<path d="M703.238 41.6509H723.012V126.128H703.238V41.6509ZM713.204 27.7296C709.618 27.7296 706.613 26.6222 704.187 24.4074C701.761 22.0872 700.548 19.2397 700.548 15.8648C700.548 12.4899 701.761 9.6951 704.187 7.48033C706.613 5.16011 709.618 4 713.204 4C716.79 4 719.796 5.10738 722.221 7.32214C724.647 9.43144 725.86 12.1208 725.86 15.3902C725.86 18.8705 724.647 21.8235 722.221 24.2492C719.901 26.5695 716.895 27.7296 713.204 27.7296Z" fill="white"/>
<path d="M781.239 40.7018C793.684 40.7018 803.176 43.7075 809.714 49.719C816.359 55.625 819.681 64.5895 819.681 76.6125V126.128H801.013V115.845C798.588 119.537 795.107 122.384 790.573 124.388C786.143 126.286 780.764 127.236 774.436 127.236C768.108 127.236 762.572 126.181 757.826 124.072C753.08 121.857 749.388 118.851 746.752 115.054C744.221 111.152 742.955 106.775 742.955 101.924C742.955 94.3306 745.75 88.2664 751.34 83.7314C757.035 79.0909 765.946 76.7707 778.075 76.7707H799.906V75.5051C799.906 69.5991 798.113 65.0641 794.527 61.9002C791.047 58.7362 785.827 57.1543 778.866 57.1543C774.12 57.1543 769.427 57.8925 764.786 59.369C760.251 60.8455 756.402 62.9021 753.238 65.5387L745.486 51.1428C749.916 47.7679 755.242 45.184 761.464 43.3911C767.687 41.5982 774.278 40.7018 781.239 40.7018ZM778.549 112.84C783.506 112.84 787.883 111.732 791.68 109.518C795.582 107.197 798.324 103.928 799.906 99.7093V89.9011H779.499C768.108 89.9011 762.413 93.6451 762.413 101.133C762.413 104.719 763.837 107.566 766.685 109.676C769.532 111.785 773.487 112.84 778.549 112.84Z" fill="white"/>
</svg>
